<svg xmlns="http://www.w3.org/2000/svg" xmlns:xlink="http://www.w3.org/1999/xlink" width="1920" zoomAndPan="magnify" viewBox="0 0 1440 809.999993" height="1080" preserveAspectRatio="xMidYMid meet" version="1.0"><defs><g/><clipPath id="de21d6c7f1"><path d="M 637 391 L 664 391 L 664 418 L 637 418 Z M 637 391 " clip-rule="nonzero"/></clipPath><clipPath id="4ebd95c97a"><path d="M 663.234375 404.25 C 663.234375 405.09375 663.152344 405.929688 662.988281 406.757812 C 662.824219 407.585938 662.578125 408.390625 662.253906 409.171875 C 661.929688 409.953125 661.535156 410.695312 661.0625 411.394531 C 660.59375 412.097656 660.058594 412.746094 659.460938 413.34375 C 658.859375 413.941406 658.210938 414.476562 657.503906 414.945312 C 656.800781 415.414062 656.058594 415.808594 655.277344 416.132812 C 654.496094 416.457031 653.6875 416.699219 652.859375 416.867188 C 652.027344 417.03125 651.1875 417.113281 650.34375 417.113281 C 649.496094 417.113281 648.65625 417.03125 647.828125 416.867188 C 646.996094 416.699219 646.191406 416.457031 645.410156 416.132812 C 644.625 415.808594 643.882812 415.414062 643.179688 414.945312 C 642.476562 414.476562 641.824219 413.941406 641.226562 413.34375 C 640.625 412.746094 640.09375 412.097656 639.621094 411.394531 C 639.152344 410.695312 638.753906 409.953125 638.429688 409.171875 C 638.105469 408.390625 637.863281 407.585938 637.695312 406.757812 C 637.53125 405.929688 637.449219 405.09375 637.449219 404.25 C 637.449219 403.40625 637.53125 402.570312 637.695312 401.742188 C 637.863281 400.914062 638.105469 400.109375 638.429688 399.328125 C 638.753906 398.546875 639.152344 397.804688 639.621094 397.105469 C 640.09375 396.402344 640.625 395.753906 641.226562 395.15625 C 641.824219 394.558594 642.476562 394.023438 643.179688 393.554688 C 643.882812 393.085938 644.625 392.691406 645.410156 392.367188 C 646.191406 392.042969 646.996094 391.800781 647.828125 391.632812 C 648.65625 391.46875 649.496094 391.386719 650.34375 391.386719 C 651.1875 391.386719 652.027344 391.46875 652.859375 391.632812 C 653.6875 391.800781 654.496094 392.042969 655.277344 392.367188 C 656.058594 392.691406 656.800781 393.085938 657.503906 393.554688 C 658.210938 394.023438 658.859375 394.558594 659.460938 395.15625 C 660.058594 395.753906 660.59375 396.402344 661.0625 397.105469 C 661.535156 397.804688 661.929688 398.546875 662.253906 399.328125 C 662.578125 400.109375 662.824219 400.914062 662.988281 401.742188 C 663.152344 402.570312 663.234375 403.40625 663.234375 404.25 Z M 663.234375 404.25 " clip-rule="nonzero"/></clipPath><linearGradient x1="-0.00000121089" gradientTransform="matrix(25.787178, 0, 0, 25.725, 637.448851, 391.387527)" y1="-0.00000121089" x2="0.999999" gradientUnits="userSpaceOnUse" y2="0.999999" id="e47ef901ca"><stop stop-opacity="1" stop-color="rgb(2.349854%, 71.369934%, 83.139038%)" offset="0"/><stop stop-opacity="1" stop-color="rgb(2.511597%, 71.209717%, 83.242798%)" offset="0.015625"/><stop stop-opacity="1" stop-color="rgb(2.835083%, 70.890808%, 83.451843%)" offset="0.03125"/><stop stop-opacity="1" stop-color="rgb(3.160095%, 70.571899%, 83.659363%)" offset="0.046875"/><stop stop-opacity="1" stop-color="rgb(3.485107%, 70.252991%, 83.868408%)" offset="0.0625"/><stop stop-opacity="1" stop-color="rgb(3.81012%, 69.935608%, 84.075928%)" offset="0.078125"/><stop stop-opacity="1" stop-color="rgb(4.135132%, 69.616699%, 84.284973%)" offset="0.09375"/><stop stop-opacity="1" stop-color="rgb(4.460144%, 69.297791%, 84.492493%)" offset="0.109375"/><stop stop-opacity="1" stop-color="rgb(4.785156%, 68.978882%, 84.701538%)" offset="0.125"/><stop stop-opacity="1" stop-color="rgb(5.110168%, 68.659973%, 84.909058%)" offset="0.140625"/><stop stop-opacity="1" stop-color="rgb(5.435181%, 68.34259%, 85.118103%)" offset="0.15625"/><stop stop-opacity="1" stop-color="rgb(5.758667%, 68.023682%, 85.325623%)" offset="0.171875"/><stop stop-opacity="1" stop-color="rgb(6.083679%, 67.704773%, 85.534668%)" offset="0.1875"/><stop stop-opacity="1" stop-color="rgb(6.408691%, 67.385864%, 85.742188%)" offset="0.203125"/><stop stop-opacity="1" stop-color="rgb(6.733704%, 67.066956%, 85.951233%)" offset="0.21875"/><stop stop-opacity="1" stop-color="rgb(7.058716%, 66.749573%, 86.158752%)" offset="0.234375"/><stop stop-opacity="1" stop-color="rgb(7.383728%, 66.430664%, 86.367798%)" offset="0.25"/><stop stop-opacity="1" stop-color="rgb(7.70874%, 66.111755%, 86.575317%)" offset="0.265625"/><stop stop-opacity="1" stop-color="rgb(8.033752%, 65.792847%, 86.784363%)" offset="0.28125"/><stop stop-opacity="1" stop-color="rgb(8.358765%, 65.473938%, 86.991882%)" offset="0.296875"/><stop stop-opacity="1" stop-color="rgb(8.682251%, 65.156555%, 87.200928%)" offset="0.3125"/><stop stop-opacity="1" stop-color="rgb(9.007263%, 64.837646%, 87.408447%)" offset="0.328125"/><stop stop-opacity="1" stop-color="rgb(9.332275%, 64.518738%, 87.617493%)" offset="0.34375"/><stop stop-opacity="1" stop-color="rgb(9.657288%, 64.199829%, 87.825012%)" offset="0.359375"/><stop stop-opacity="1" stop-color="rgb(9.9823%, 63.882446%, 88.034058%)" offset="0.375"/><stop stop-opacity="1" stop-color="rgb(10.307312%, 63.563538%, 88.241577%)" offset="0.390625"/><stop stop-opacity="1" stop-color="rgb(10.632324%, 63.244629%, 88.450623%)" offset="0.40625"/><stop stop-opacity="1" stop-color="rgb(10.957336%, 62.92572%, 88.658142%)" offset="0.421875"/><stop stop-opacity="1" stop-color="rgb(11.282349%, 62.606812%, 88.867188%)" offset="0.4375"/><stop stop-opacity="1" stop-color="rgb(11.605835%, 62.289429%, 89.074707%)" offset="0.453125"/><stop stop-opacity="1" stop-color="rgb(11.930847%, 61.97052%, 89.283752%)" offset="0.46875"/><stop stop-opacity="1" stop-color="rgb(12.255859%, 61.651611%, 89.491272%)" offset="0.484375"/><stop stop-opacity="1" stop-color="rgb(12.580872%, 61.332703%, 89.700317%)" offset="0.5"/><stop stop-opacity="1" stop-color="rgb(12.744141%, 61.174011%, 89.804077%)" offset="0.5"/><stop stop-opacity="1" stop-color="rgb(12.905884%, 61.013794%, 89.907837%)" offset="0.5"/><stop stop-opacity="1" stop-color="rgb(13.069153%, 60.855103%, 90.013123%)" offset="0.515625"/><stop stop-opacity="1" stop-color="rgb(13.230896%, 60.696411%, 90.116882%)" offset="0.53125"/><stop stop-opacity="1" stop-color="rgb(13.555908%, 60.377502%, 90.324402%)" offset="0.546875"/><stop stop-opacity="1" stop-color="rgb(13.88092%, 60.058594%, 90.533447%)" offset="0.5625"/><stop stop-opacity="1" stop-color="rgb(14.205933%, 59.739685%, 90.740967%)" offset="0.578125"/><stop stop-opacity="1" stop-color="rgb(14.529419%, 59.420776%, 90.950012%)" offset="0.59375"/><stop stop-opacity="1" stop-color="rgb(14.854431%, 59.103394%, 91.157532%)" offset="0.609375"/><stop stop-opacity="1" stop-color="rgb(15.179443%, 58.784485%, 91.366577%)" offset="0.625"/><stop stop-opacity="1" stop-color="rgb(15.504456%, 58.465576%, 91.574097%)" offset="0.640625"/><stop stop-opacity="1" stop-color="rgb(15.829468%, 58.146667%, 91.783142%)" offset="0.65625"/><stop stop-opacity="1" stop-color="rgb(16.15448%, 57.827759%, 91.990662%)" offset="0.671875"/><stop stop-opacity="1" stop-color="rgb(16.479492%, 57.510376%, 92.199707%)" offset="0.6875"/><stop stop-opacity="1" stop-color="rgb(16.804504%, 57.191467%, 92.407227%)" offset="0.703125"/><stop stop-opacity="1" stop-color="rgb(17.129517%, 56.872559%, 92.616272%)" offset="0.71875"/><stop stop-opacity="1" stop-color="rgb(17.454529%, 56.55365%, 92.823792%)" offset="0.734375"/><stop stop-opacity="1" stop-color="rgb(17.778015%, 56.234741%, 93.032837%)" offset="0.75"/><stop stop-opacity="1" stop-color="rgb(18.103027%, 55.917358%, 93.240356%)" offset="0.765625"/><stop stop-opacity="1" stop-color="rgb(18.42804%, 55.59845%, 93.449402%)" offset="0.78125"/><stop stop-opacity="1" stop-color="rgb(18.753052%, 55.279541%, 93.656921%)" offset="0.796875"/><stop stop-opacity="1" stop-color="rgb(19.078064%, 54.960632%, 93.865967%)" offset="0.8125"/><stop stop-opacity="1" stop-color="rgb(19.403076%, 54.641724%, 94.073486%)" offset="0.828125"/><stop stop-opacity="1" stop-color="rgb(19.728088%, 54.324341%, 94.282532%)" offset="0.84375"/><stop stop-opacity="1" stop-color="rgb(20.053101%, 54.005432%, 94.490051%)" offset="0.859375"/><stop stop-opacity="1" stop-color="rgb(20.378113%, 53.686523%, 94.699097%)" offset="0.875"/><stop stop-opacity="1" stop-color="rgb(20.701599%, 53.367615%, 94.906616%)" offset="0.890625"/><stop stop-opacity="1" stop-color="rgb(21.026611%, 53.050232%, 95.115662%)" offset="0.90625"/><stop stop-opacity="1" stop-color="rgb(21.351624%, 52.731323%, 95.323181%)" offset="0.921875"/><stop stop-opacity="1" stop-color="rgb(21.676636%, 52.412415%, 95.532227%)" offset="0.9375"/><stop stop-opacity="1" stop-color="rgb(22.001648%, 52.093506%, 95.739746%)" offset="0.953125"/><stop stop-opacity="1" stop-color="rgb(22.32666%, 51.774597%, 95.948792%)" offset="0.96875"/><stop stop-opacity="1" stop-color="rgb(22.651672%, 51.457214%, 96.156311%)" offset="0.984375"/><stop stop-opacity="1" stop-color="rgb(22.976685%, 51.138306%, 96.365356%)" offset="1"/></linearGradient></defs><path stroke-linecap="butt" transform="matrix(0.460485, 0, 0, 0.459375, 618.108431, 372.093752)" fill-opacity="1" fill="#0a192f" fill-rule="nonzero" stroke-linejoin="round" d="M 70.002921 9.999995 L 130.002457 29.999996 L 130.002457 100 L 70.002921 135.000001 L 10.003386 100 L 10.003386 29.999996 Z M 70.002921 9.999995 " stroke="#06b6d4" stroke-width="4" stroke-opacity="1" stroke-miterlimit="4"/><g clip-path="url(#de21d6c7f1)"><g clip-path="url(#4ebd95c97a)"><path fill="url(#e47ef901ca)" d="M 637.449219 391.386719 L 637.449219 417.113281 L 663.234375 417.113281 L 663.234375 391.386719 Z M 637.449219 391.386719 " fill-rule="nonzero"/></g></g><path fill="#06b6d4" d="M 656.789062 404.25 C 656.789062 404.671875 656.746094 405.089844 656.664062 405.503906 C 656.582031 405.917969 656.460938 406.320312 656.296875 406.710938 C 656.136719 407.101562 655.9375 407.472656 655.703125 407.824219 C 655.46875 408.175781 655.199219 408.5 654.902344 408.796875 C 654.601562 409.097656 654.277344 409.363281 653.925781 409.597656 C 653.570312 409.832031 653.199219 410.03125 652.808594 410.191406 C 652.417969 410.351562 652.015625 410.476562 651.601562 410.558594 C 651.183594 410.640625 650.765625 410.679688 650.34375 410.679688 C 649.917969 410.679688 649.5 410.640625 649.085938 410.558594 C 648.667969 410.476562 648.265625 410.351562 647.875 410.191406 C 647.484375 410.03125 647.113281 409.832031 646.761719 409.597656 C 646.410156 409.363281 646.082031 409.097656 645.785156 408.796875 C 645.484375 408.5 645.21875 408.175781 644.980469 407.824219 C 644.746094 407.472656 644.546875 407.101562 644.386719 406.710938 C 644.222656 406.320312 644.101562 405.917969 644.019531 405.503906 C 643.9375 405.089844 643.894531 404.671875 643.894531 404.25 C 643.894531 403.828125 643.9375 403.410156 644.019531 402.996094 C 644.101562 402.582031 644.222656 402.179688 644.386719 401.789062 C 644.546875 401.398438 644.746094 401.027344 644.980469 400.675781 C 645.21875 400.324219 645.484375 400 645.785156 399.703125 C 646.082031 399.402344 646.410156 399.136719 646.761719 398.902344 C 647.113281 398.667969 647.484375 398.46875 647.875 398.308594 C 648.265625 398.148438 648.667969 398.023438 649.085938 397.941406 C 649.5 397.859375 649.917969 397.820312 650.34375 397.820312 C 650.765625 397.820312 651.183594 397.859375 651.601562 397.941406 C 652.015625 398.023438 652.417969 398.148438 652.808594 398.308594 C 653.199219 398.46875 653.570312 398.667969 653.925781 398.902344 C 654.277344 399.136719 654.601562 399.402344 654.902344 399.703125 C 655.199219 400 655.46875 400.324219 655.703125 400.675781 C 655.9375 401.027344 656.136719 401.398438 656.296875 401.789062 C 656.460938 402.179688 656.582031 402.582031 656.664062 402.996094 C 656.746094 403.410156 656.789062 403.828125 656.789062 404.25 Z M 656.789062 404.25 " fill-opacity="1" fill-rule="nonzero"/><path stroke-linecap="round" transform="matrix(0.460485, 0, 0, 0.459375, 618.108431, 372.093752)" fill="none" stroke-linejoin="miter" d="M 35.002486 69.999998 C 46.335637 53.333331 57.999621 53.333331 70.002921 69.999998 C 81.997739 86.666666 93.670206 86.666666 105.003357 69.999998 " stroke="#38bdf8" stroke-width="4" stroke-opacity="1" stroke-miterlimit="4"/><g fill="#0a192f" fill-opacity="1"><g transform="translate(687.181268, 411.140615)"><g><path d="M 7.503906 -3.421875 L 3.566406 -3.421875 L 2.367188 0 L 0.125 0 L 4.421875 -12.03125 L 6.761719 -12.03125 L 11.003906 0 L 8.683594 0 Z M 6.878906 -5.285156 L 5.566406 -9.15625 L 4.167969 -5.285156 Z M 6.878906 -5.285156 "/></g></g></g><g fill="#0a192f" fill-opacity="1"><g transform="translate(698.308212, 411.140615)"><g><path d="M 3.511719 -5.183594 L 3.511719 -1.929688 L 10.242188 -1.929688 L 10.242188 0 L 1.40625 0 L 1.40625 -12.03125 L 9.960938 -12.03125 L 9.960938 -10.101562 L 3.511719 -10.101562 L 3.511719 -7.113281 L 9.730469 -7.113281 L 9.730469 -5.183594 Z M 3.511719 -5.183594 "/></g></g></g><g fill="#0a192f" fill-opacity="1"><g transform="translate(709.435156, 411.140615)"><g><path d="M 3.554688 -4.902344 L 3.554688 0 L 1.453125 0 L 1.453125 -12.03125 L 7.035156 -12.03125 C 8.964844 -12.03125 10.167969 -11.332031 10.644531 -9.9375 C 10.773438 -9.5625 10.839844 -9.136719 10.839844 -8.664062 C 10.839844 -7.53125 10.414062 -6.664062 9.566406 -6.0625 C 9.355469 -5.921875 9.222656 -5.886719 9.171875 -5.957031 C 9.671875 -5.835938 10.039062 -5.527344 10.273438 -5.035156 C 10.472656 -4.609375 10.574219 -3.921875 10.585938 -2.984375 C 10.605469 -2.046875 10.6875 -1.464844 10.832031 -1.234375 C 10.898438 -1.140625 11.046875 -1.011719 11.273438 -0.851562 L 11.273438 0 L 8.96875 0 C 8.675781 -0.667969 8.527344 -1.398438 8.527344 -2.1875 L 8.542969 -3.203125 C 8.542969 -4.15625 8.210938 -4.707031 7.546875 -4.847656 C 7.382812 -4.882812 7.195312 -4.902344 6.988281 -4.902344 Z M 3.554688 -6.832031 L 6.753906 -6.832031 C 7.839844 -6.832031 8.460938 -7.195312 8.613281 -7.917969 C 8.648438 -8.074219 8.664062 -8.253906 8.664062 -8.460938 C 8.664062 -9.042969 8.503906 -9.472656 8.183594 -9.746094 C 7.910156 -9.984375 7.433594 -10.101562 6.753906 -10.101562 L 3.554688 -10.101562 Z M 3.554688 -6.832031 "/></g></g></g><g fill="#0a192f" fill-opacity="1"><g transform="translate(721.417779, 411.140615)"><g><path d="M 6.410156 -12.222656 C 8.328125 -12.222656 9.828125 -11.539062 10.914062 -10.167969 L 11.332031 -9.554688 C 11.949219 -8.496094 12.261719 -7.257812 12.261719 -5.835938 C 12.261719 -4.222656 11.808594 -2.839844 10.90625 -1.6875 C 10.683594 -1.402344 10.4375 -1.144531 10.171875 -0.921875 C 9.160156 -0.0703125 7.910156 0.359375 6.425781 0.359375 C 4.582031 0.359375 3.113281 -0.289062 2.023438 -1.585938 C 1.066406 -2.730469 0.589844 -4.175781 0.589844 -5.929688 C 0.589844 -7.9375 1.199219 -9.527344 2.421875 -10.707031 C 3.480469 -11.71875 4.808594 -12.222656 6.410156 -12.222656 Z M 6.410156 -10.292969 C 5.167969 -10.292969 4.199219 -9.804688 3.511719 -8.835938 C 2.964844 -8.058594 2.691406 -7.089844 2.691406 -5.929688 C 2.691406 -4.386719 3.152344 -3.214844 4.070312 -2.414062 C 4.707031 -1.851562 5.492188 -1.574219 6.425781 -1.574219 C 7.65625 -1.574219 8.621094 -2.050781 9.308594 -3 C 9.867188 -3.761719 10.148438 -4.71875 10.148438 -5.867188 C 10.148438 -7.484375 9.675781 -8.691406 8.734375 -9.492188 C 8.101562 -10.023438 7.328125 -10.292969 6.410156 -10.292969 Z M 6.410156 -10.292969 "/></g></g></g><g fill="#0a192f" fill-opacity="1"><g transform="translate(734.279001, 411.140615)"><g><path d="M 0.71875 -5.523438 L 5.09375 -5.523438 L 5.09375 -3.75 L 0.71875 -3.75 Z M 0.71875 -5.523438 "/></g></g></g><g fill="#0a192f" fill-opacity="1"><g transform="translate(740.172554, 411.140615)"><g><path d="M 9.976562 -8.042969 L 7.949219 -8.042969 C 7.941406 -9.246094 7.445312 -9.976562 6.472656 -10.234375 C 6.164062 -10.3125 5.8125 -10.351562 5.421875 -10.351562 C 4.453125 -10.351562 3.792969 -10.085938 3.4375 -9.546875 L 3.273438 -9.210938 C 3.226562 -9.082031 3.203125 -8.929688 3.203125 -8.757812 C 3.203125 -8.304688 3.425781 -7.964844 3.871094 -7.734375 C 4.109375 -7.609375 4.429688 -7.492188 4.835938 -7.386719 L 7.703125 -6.617188 C 9.074219 -6.242188 9.921875 -5.492188 10.246094 -4.363281 C 10.328125 -4.078125 10.371094 -3.773438 10.371094 -3.449219 C 10.371094 -2.492188 10.039062 -1.652344 9.371094 -0.929688 C 9.246094 -0.804688 9.117188 -0.6875 8.996094 -0.589844 C 8.171875 0.0429688 7.03125 0.359375 5.582031 0.359375 C 3.710938 0.359375 2.34375 -0.226562 1.484375 -1.398438 C 1.003906 -2.050781 0.757812 -3.007812 0.746094 -4.269531 L 2.785156 -4.269531 C 2.769531 -3.636719 2.839844 -3.164062 2.992188 -2.859375 C 3.074219 -2.707031 3.175781 -2.558594 3.296875 -2.40625 C 3.761719 -1.851562 4.554688 -1.574219 5.675781 -1.574219 C 6.535156 -1.574219 7.175781 -1.714844 7.589844 -1.996094 C 7.96875 -2.261719 8.1875 -2.640625 8.25 -3.125 C 8.257812 -3.1875 8.261719 -3.25 8.261719 -3.304688 C 8.261719 -3.941406 7.765625 -4.414062 6.769531 -4.726562 L 6.402344 -4.839844 L 3.574219 -5.582031 C 1.921875 -6.011719 1.09375 -7 1.09375 -8.550781 C 1.09375 -9.972656 1.691406 -11.003906 2.890625 -11.648438 C 3.609375 -12.03125 4.46875 -12.222656 5.46875 -12.222656 C 7.433594 -12.222656 8.777344 -11.589844 9.496094 -10.320312 C 9.816406 -9.761719 9.976562 -9.003906 9.976562 -8.042969 Z M 9.976562 -8.042969 "/></g></g></g><g fill="#0a192f" fill-opacity="1"><g transform="translate(751.299498, 411.140615)"><g><path d="M 7.503906 -3.421875 L 3.566406 -3.421875 L 2.367188 0 L 0.125 0 L 4.421875 -12.03125 L 6.761719 -12.03125 L 11.003906 0 L 8.683594 0 Z M 6.878906 -5.285156 L 5.566406 -9.15625 L 4.167969 -5.285156 Z M 6.878906 -5.285156 "/></g></g></g><g fill="#0a192f" fill-opacity="1"><g transform="translate(762.426442, 411.140615)"><g><path d="M 10.753906 -12.03125 L 10.753906 0 L 8.605469 0 L 3.210938 -8.433594 L 3.210938 0 L 1.183594 0 L 1.183594 -12.03125 L 3.269531 -12.03125 L 8.726562 -3.511719 L 8.726562 -12.03125 Z M 10.753906 -12.03125 "/></g></g></g><g fill="#0a192f" fill-opacity="1"><g transform="translate(774.409065, 411.140615)"><g><path d="M 1.558594 -12.03125 L 3.6875 -12.03125 L 3.6875 0 L 1.558594 0 Z M 1.558594 -12.03125 "/></g></g></g><g fill="#0a192f" fill-opacity="1"><g transform="translate(779.446939, 411.140615)"><g><path d="M 6.191406 -10.101562 L 6.191406 0 L 4.089844 0 L 4.089844 -10.101562 L 0.328125 -10.101562 L 0.328125 -12.03125 L 9.929688 -12.03125 L 9.929688 -10.101562 Z M 6.191406 -10.101562 "/></g></g></g><g fill="#0a192f" fill-opacity="1"><g transform="translate(789.695285, 411.140615)"><g><path d="M 1.558594 -12.03125 L 3.6875 -12.03125 L 3.6875 0 L 1.558594 0 Z M 1.558594 -12.03125 "/></g></g></g><g fill="#0a192f" fill-opacity="1"><g transform="translate(794.733159, 411.140615)"><g><path d="M 9.746094 -12.03125 L 9.746094 -10.285156 L 3.261719 -1.929688 L 9.777344 -1.929688 L 9.777344 0 L 0.4375 0 L 0.4375 -1.71875 L 6.949219 -10.101562 L 0.871094 -10.101562 L 0.871094 -12.03125 Z M 9.746094 -12.03125 "/></g></g></g><g fill="#0a192f" fill-opacity="1"><g transform="translate(804.981505, 411.140615)"><g><path d="M 3.511719 -5.183594 L 3.511719 -1.929688 L 10.242188 -1.929688 L 10.242188 0 L 1.40625 0 L 1.40625 -12.03125 L 9.960938 -12.03125 L 9.960938 -10.101562 L 3.511719 -10.101562 L 3.511719 -7.113281 L 9.730469 -7.113281 L 9.730469 -5.183594 Z M 3.511719 -5.183594 "/></g></g></g></svg>